M48
; DRILL file {KiCad (7.0.0-0)} date Thursday, March 16, 2023 at 09:22:01 PM
; FORMAT={-:-/ absolute / inch / decimal}
; #@! TF.CreationDate,2023-03-16T21:22:01-05:00
; #@! TF.GenerationSoftware,Kicad,Pcbnew,(7.0.0-0)
; #@! TF.FileFunction,Plated,1,2,PTH
FMAT,2
INCH
; #@! TA.AperFunction,Plated,PTH,ViaDrill
T1C0.0157
; #@! TA.AperFunction,Plated,PTH,ViaDrill
T2C0.0315
; #@! TA.AperFunction,Plated,PTH,ComponentDrill
T3C0.0394
; #@! TA.AperFunction,Plated,PTH,ComponentDrill
T4C0.0402
; #@! TA.AperFunction,Plated,PTH,ComponentDrill
T5C0.0433
; #@! TA.AperFunction,Plated,PTH,ComponentDrill
T6C0.0523
; #@! TA.AperFunction,Plated,PTH,ComponentDrill
T7C0.0906
; #@! TA.AperFunction,Plated,PTH,ComponentDrill
T8C0.1260
%
G90
G05
T1
X1.7087Y-3.9803
X1.8189Y-2.0984
X1.8676Y-3.9803
X1.9567Y-1.7835
X1.9606Y-2.3937
X2.0266Y-3.9803
X2.1772Y-2.3425
X2.1855Y-3.9803
X2.1929Y-1.9213
X2.2441Y-2.0945
X2.2644Y-1.9403
X2.3189Y-2.5512
X2.3445Y-3.9803
X2.3898Y-2.5787
X2.4606Y-1.9331
X2.5034Y-3.9803
X2.5276Y-2.622
X2.6624Y-3.9803
X2.6654Y-2.0945
X2.6969Y-1.8543
X2.8071Y-2.0984
X2.8214Y-3.9803
X2.8287Y-2.4803
X2.9803Y-3.9803
X3.0314Y-1.9409
X3.0354Y-2.6417
X3.0354Y-2.7205
X3.0906Y-2.2638
X3.0906Y-2.5787
X3.0906Y-2.6771
X3.0914Y-2.452
X3.1235Y-2.4292
X3.1235Y-3.2402
X3.1511Y-2.777
X3.1535Y-3.5669
X3.1557Y-2.6709
X3.1561Y-2.0577
X3.1575Y-2.5787
X3.1687Y-2.4526
X3.1693Y-2.3661
X3.187Y-3.3228
X3.1872Y-4.1104
X3.1929Y-2.2913
X3.1929Y-2.5984
X3.1943Y-2.6786
X3.1963Y-2.4231
X3.2244Y-1.9213
X3.2307Y-2.4422
X3.2559Y-3.6575
X3.2582Y-2.6038
X3.2582Y-2.6703
X3.2582Y-2.7786
X3.2582Y-3.0551
X3.2657Y-4.1142
X3.2711Y-2.4526
X3.2717Y-2.3819
X3.2795Y-3.5157
X3.2953Y-2.563
X3.2967Y-2.6786
X3.2986Y-2.4209
X3.3071Y-2.2323
X3.3346Y-2.437
X3.3406Y-3.6161
X3.3425Y-4.1142
X3.3543Y-2.0591
X3.3839Y-3.813
X3.3898Y-2.2008
X3.4134Y-3.1535
X3.4252Y-3.8622
X3.4252Y-4.1142
X3.4606Y-2.9646
X3.4764Y-2.1693
X3.5394Y-2.7559
X3.5394Y-2.0472
X3.5394Y-2.3346
X3.5512Y-4.0
X3.626Y-2.1319
X3.6909Y-2.3937
X3.7126Y-2.752
X3.7185Y-3.4232
X3.7333Y-4.122
X3.8504Y-2.8071
X3.8661Y-2.2205
X3.8701Y-1.7874
X3.938Y-4.3268
X3.9892Y-4.3268
X4.0Y-1.9213
X4.0443Y-4.3307
X4.0787Y-2.3071
X4.1378Y-2.3937
X4.1457Y-1.9252
X4.1949Y-2.626
X4.1969Y-2.8031
X4.2283Y-2.5197
X4.2835Y-2.2638
X4.3268Y-2.4134
X4.3583Y-1.9409
X4.374Y-2.4803
X4.5276Y-2.8031
X4.5866Y-1.8465
X4.6201Y-3.7421
X4.622Y-2.7047
X4.622Y-3.4252
X4.626Y-3.9449
X4.8563Y-2.185
X4.8602Y-2.3602
X4.9016Y-2.7165
X4.9563Y-1.9366
X5.0236Y-2.3189
X5.0866Y-2.0472
X5.1693Y-2.1614
X5.2126Y-1.9488
X5.2598Y-3.5709
X5.2638Y-2.9685
X5.2677Y-2.6654
X5.2756Y-2.0591
X5.3583Y-3.4134
X5.3681Y-4.0138
X5.374Y-3.5236
X5.3957Y-3.7421
X5.4213Y-2.1496
X5.4213Y-3.315
X5.4488Y-2.811
X5.4528Y-2.6575
X5.4606Y-2.0787
X5.5531Y-2.1496
X5.6358Y-3.5079
X5.6457Y-2.0906
X5.6535Y-2.7717
X5.7756Y-3.9291
X5.7874Y-1.7835
X5.7874Y-2.1614
X5.7992Y-3.4606
X5.8169Y-2.374
X5.9291Y-1.9252
X6.0039Y-2.2441
X6.0157Y-3.8173
X6.0197Y-3.5626
X6.0669Y-2.0945
X6.0826Y-1.9173
X6.0906Y-2.7677
X6.1378Y-2.3701
X6.2126Y-2.3976
X6.2795Y-1.9252
X6.3465Y-2.2756
X6.4882Y-2.0945
X6.4961Y-3.7598
X6.4961Y-4.1142
X6.5098Y-3.3484
X6.5197Y-3.1417
X6.5354Y-1.8661
X6.6024Y-2.4331
X6.6299Y-2.0945
X6.6654Y-4.4173
X6.6693Y-2.9134
X6.7087Y-2.622
X6.7441Y-2.4961
X6.75Y-2.0945
X6.7835Y-3.9567
X6.8465Y-2.8622
X6.8622Y-2.3189
X6.8701Y-2.7323
X6.8753Y-1.9383
X6.903Y-3.2165
X6.9098Y-3.5783
X6.9173Y-2.2047
X6.9213Y-4.0354
X6.9252Y-2.5669
X6.9306Y-2.6837
X6.9313Y-2.4585
X6.9449Y-2.3976
X6.9646Y-2.2402
X6.9786Y-2.4213
X6.9803Y-2.7835
X6.9803Y-2.972
X7.0028Y-2.68
X7.0059Y-2.0492
X7.0079Y-2.2205
X7.0276Y-4.0945
X7.0315Y-3.6626
X7.0337Y-2.3661
X7.0337Y-2.4585
X7.0354Y-2.2795
X7.0355Y-2.5592
X7.063Y-2.6762
X7.0748Y-2.2795
X7.0827Y-2.7835
X7.0827Y-3.0748
X7.0827Y-3.748
X7.0827Y-3.9409
X7.0866Y-2.1614
X7.0945Y-1.9449
X7.1063Y-2.4327
X7.1105Y-2.6845
X7.1142Y-2.1299
X7.126Y-3.9961
X7.136Y-2.4585
X7.1378Y-2.248
X7.149Y-2.6768
X7.1653Y-2.374
X7.1707Y-2.5574
X7.1969Y-2.4567
X7.2008Y-3.8626
X7.2012Y-2.0669
X7.2362Y-2.5551
X7.2638Y-3.6299
X7.2835Y-4.0906
X7.3189Y-3.5157
X7.3228Y-2.1299
X7.3543Y-2.3189
X7.3543Y-2.7362
X7.378Y-2.0827
X7.4744Y-2.7343
X7.5Y-2.4528
X7.5669Y-2.0945
X7.5669Y-3.9606
X7.622Y-4.1575
X7.689Y-1.7795
X7.7008Y-2.248
X7.7047Y-3.9528
X7.8504Y-2.972
X7.9094Y-4.1142
X7.9252Y-1.9409
X7.9252Y-2.3661
X7.9882Y-2.0906
X7.9921Y-3.5783
X8.0276Y-1.9173
X8.0512Y-3.0705
X8.0551Y-2.2953
X8.0945Y-4.1181
X8.1181Y-2.1693
X8.126Y-3.9606
X8.1929Y-3.6626
X8.2047Y-1.9331
X8.2047Y-4.0787
X8.2598Y-2.2244
X8.4055Y-3.8626
X8.4094Y-2.0945
X8.4331Y-4.2205
X8.5472Y-1.9094
X8.5512Y-2.0984
X8.5512Y-3.9606
X8.5669Y-2.6752
X8.5886Y-2.4272
X8.6693Y-2.1142
X8.6929Y-3.3031
X8.7904Y-1.9439
X8.8268Y-2.4193
X8.8268Y-2.6752
X8.878Y-2.1457
X8.8937Y-3.2736
X8.9114Y-3.7402
X8.9252Y-2.0551
X8.9252Y-2.315
X8.9331Y-4.0591
X8.9449Y-2.7165
X9.0118Y-1.9488
X9.0276Y-3.4724
X9.0965Y-2.4016
X9.0984Y-2.0551
X9.1043Y-2.6614
X9.1398Y-3.2559
X9.2323Y-2.1378
X9.2992Y-2.0591
T2
X4.3268Y-4.0866
X6.0906Y-4.315
T3
X2.0809Y-1.7724
X2.126Y-1.6945
X2.126Y-1.8504
X2.1711Y-1.7724
X2.2161Y-1.6945
X2.2161Y-1.8504
X2.2612Y-1.7724
X2.3063Y-1.6945
X2.3063Y-1.8504
X2.3514Y-1.7724
X2.3965Y-1.6945
X2.3965Y-1.8504
X2.4415Y-1.7724
X2.4866Y-1.6945
X2.4866Y-1.8504
X4.0016Y-1.7724
X4.0466Y-1.6945
X4.0466Y-1.8504
X4.0917Y-1.7724
X4.1368Y-1.6945
X4.1368Y-1.8504
X4.1819Y-1.7724
X4.227Y-1.6945
X4.227Y-1.8504
X4.272Y-1.7724
X4.3171Y-1.6945
X4.3171Y-1.8504
X4.3622Y-1.7724
X4.4073Y-1.6945
X4.4073Y-1.8504
X4.7244Y-2.5173
X4.7244Y-2.6173
X4.7244Y-2.7173
X4.7244Y-2.8173
X4.7244Y-2.9173
X4.7244Y-3.0173
X4.7244Y-3.1173
X4.7244Y-3.2173
X4.7244Y-3.3173
X4.7244Y-3.4173
X4.7244Y-3.5173
X4.7244Y-3.6173
X4.7244Y-3.7173
X4.7244Y-3.8173
X4.7244Y-3.9173
X4.7244Y-4.0173
X4.7244Y-4.1173
X4.7244Y-4.2173
X4.7244Y-4.3173
X4.7244Y-4.4173
X5.9222Y-1.7724
X5.9673Y-1.6945
X5.9673Y-1.8504
X6.0124Y-1.7724
X6.0575Y-1.6945
X6.0575Y-1.8504
X6.1025Y-1.7724
X6.1476Y-1.6945
X6.1476Y-1.8504
X6.1927Y-1.7724
X6.2378Y-1.6945
X6.2378Y-1.8504
X6.2829Y-1.7724
X6.2992Y-2.5173
X6.2992Y-2.6173
X6.2992Y-2.7173
X6.2992Y-2.8173
X6.2992Y-2.9173
X6.2992Y-3.0173
X6.2992Y-3.1173
X6.2992Y-3.2173
X6.2992Y-3.3173
X6.2992Y-3.4173
X6.2992Y-3.5173
X6.2992Y-3.6173
X6.2992Y-3.7173
X6.2992Y-3.8173
X6.2992Y-3.9173
X6.2992Y-4.0173
X6.2992Y-4.1173
X6.2992Y-4.2173
X6.2992Y-4.3173
X6.2992Y-4.4173
X6.3279Y-1.6945
X6.3279Y-1.8504
X7.8429Y-1.7724
X7.8659Y-4.1969
X7.8659Y-4.3528
X7.888Y-1.6945
X7.888Y-1.8504
X7.911Y-4.2748
X7.933Y-1.7724
X7.9561Y-4.1969
X7.9561Y-4.3528
X7.9781Y-1.6945
X7.9781Y-1.8504
X8.0011Y-4.2748
X8.0232Y-1.7724
X8.0462Y-4.1969
X8.0462Y-4.3528
X8.0683Y-1.6945
X8.0683Y-1.8504
X8.0913Y-4.2748
X8.1134Y-1.7724
X8.1364Y-4.1969
X8.1364Y-4.3528
X8.1584Y-1.6945
X8.1584Y-1.8504
X8.1815Y-4.2748
X8.2035Y-1.7724
X8.2265Y-4.1969
X8.2265Y-4.3528
X8.2486Y-1.6945
X8.2486Y-1.8504
X8.2716Y-4.2748
X9.2346Y-2.5252
X9.2346Y-2.6252
X9.2346Y-2.7252
X9.2346Y-2.8252
X9.2346Y-2.9252
X9.2346Y-3.0252
X9.2346Y-3.1252
X9.2346Y-3.2252
X9.2346Y-3.3252
X9.2346Y-3.4252
X9.2346Y-3.5252
X9.2346Y-3.6252
X9.3346Y-2.5252
X9.3346Y-2.6252
X9.3346Y-2.7252
X9.3346Y-2.8252
X9.3346Y-2.9252
X9.3346Y-3.0252
X9.3346Y-3.1252
X9.3346Y-3.2252
X9.3346Y-3.3252
X9.3346Y-3.4252
X9.3346Y-3.5252
X9.3346Y-3.6252
T4
X5.1618Y-2.5173
X5.1618Y-2.6173
X5.1618Y-2.7173
X5.1618Y-2.8173
X5.1618Y-2.9173
X5.1618Y-3.0173
X5.1618Y-3.1173
X5.1618Y-3.2173
X5.1618Y-3.3173
X5.1618Y-3.4173
X5.1618Y-3.5173
X5.1618Y-3.6173
X5.1618Y-3.7173
X5.1618Y-3.8173
X5.1618Y-3.9173
X5.1618Y-4.0173
X5.1618Y-4.1173
X5.1618Y-4.2173
X5.1618Y-4.3173
X5.1618Y-4.4173
X5.4118Y-2.5264
X5.5118Y-2.5264
X5.6118Y-2.5264
X5.8618Y-2.5173
X5.8618Y-2.6173
X5.8618Y-2.7173
X5.8618Y-2.8173
X5.8618Y-2.9173
X5.8618Y-3.0173
X5.8618Y-3.1173
X5.8618Y-3.2173
X5.8618Y-3.3173
X5.8618Y-3.4173
X5.8618Y-3.5173
X5.8618Y-3.6173
X5.8618Y-3.7173
X5.8618Y-3.8173
X5.8618Y-3.9173
X5.8618Y-4.0173
X5.8618Y-4.1173
X5.8618Y-4.2173
X5.8618Y-4.3173
X5.8618Y-4.4173
T5
X1.8996Y-4.2264
X1.8996Y-4.4035
X2.1555Y-4.2264
X2.1555Y-4.4035
X2.3924Y-4.2264
X2.3924Y-4.4035
X2.6483Y-4.2264
X2.6483Y-4.4035
X2.8852Y-4.2264
X2.8852Y-4.4035
X3.1411Y-4.2264
X3.1411Y-4.4035
X3.378Y-4.2264
X3.378Y-4.4035
X3.6339Y-4.2264
X3.6339Y-4.4035
T6
X3.8474Y-4.2283
X3.8474Y-4.3642
X4.1289Y-4.2283
X4.1289Y-4.3642
T7
X3.2538Y-1.6949
X5.1744Y-1.6949
X7.0551Y-4.3524
X7.0951Y-1.6949
X9.0157Y-1.6949
T8
X1.8037Y-1.7697
X2.788Y-1.7697
X3.7244Y-1.7697
X4.7087Y-1.7697
X5.6451Y-1.7697
X6.6293Y-1.7697
X7.5645Y-4.2776
X7.5657Y-1.7697
X8.5488Y-4.2776
X8.55Y-1.7697
T3
G00X3.0018Y-1.6909
M15
G01X3.0018Y-1.6437
M16
G05
G00X3.5057Y-1.6909
M15
G01X3.5057Y-1.6437
M16
G05
G00X4.9225Y-1.6909
M15
G01X4.9225Y-1.6437
M16
G05
G00X5.4264Y-1.6909
M15
G01X5.4264Y-1.6437
M16
G05
G00X6.8031Y-4.3563
M15
G01X6.8031Y-4.4035
M16
G05
G00X6.8431Y-1.6909
M15
G01X6.8431Y-1.6437
M16
G05
G00X7.3071Y-4.3563
M15
G01X7.3071Y-4.4035
M16
G05
G00X7.3471Y-1.6909
M15
G01X7.3471Y-1.6437
M16
G05
G00X8.7638Y-1.6909
M15
G01X8.7638Y-1.6437
M16
G05
G00X9.2677Y-1.6909
M15
G01X9.2677Y-1.6437
M16
G05
T0
M30
