%TF.GenerationSoftware,KiCad,Pcbnew,(7.0.0-0)*%
%TF.CreationDate,2023-03-16T21:22:01-05:00*%
%TF.ProjectId,VintageKVM,56696e74-6167-4654-9b56-4d2e6b696361,rev?*%
%TF.SameCoordinates,Original*%
%TF.FileFunction,Soldermask,Bot*%
%TF.FilePolarity,Negative*%
%FSLAX46Y46*%
G04 Gerber Fmt 4.6, Leading zero omitted, Abs format (unit mm)*
G04 Created by KiCad (PCBNEW (7.0.0-0)) date 2023-03-16 21:22:01*
%MOMM*%
%LPD*%
G01*
G04 APERTURE LIST*
G04 Aperture macros list*
%AMFreePoly0*
4,1,19,0.500000,-0.750000,0.000000,-0.750000,0.000000,-0.744911,-0.071157,-0.744911,-0.207708,-0.704816,-0.327430,-0.627875,-0.420627,-0.520320,-0.479746,-0.390866,-0.500000,-0.250000,-0.500000,0.250000,-0.479746,0.390866,-0.420627,0.520320,-0.327430,0.627875,-0.207708,0.704816,-0.071157,0.744911,0.000000,0.744911,0.000000,0.750000,0.500000,0.750000,0.500000,-0.750000,0.500000,-0.750000,
$1*%
%AMFreePoly1*
4,1,19,0.000000,0.744911,0.071157,0.744911,0.207708,0.704816,0.327430,0.627875,0.420627,0.520320,0.479746,0.390866,0.500000,0.250000,0.500000,-0.250000,0.479746,-0.390866,0.420627,-0.520320,0.327430,-0.627875,0.207708,-0.704816,0.071157,-0.744911,0.000000,-0.744911,0.000000,-0.750000,-0.500000,-0.750000,-0.500000,0.750000,0.000000,0.750000,0.000000,0.744911,0.000000,0.744911,
$1*%
G04 Aperture macros list end*
%ADD10C,4.000000*%
%ADD11R,1.600000X1.600000*%
%ADD12C,1.600000*%
%ADD13R,1.700000X1.700000*%
%ADD14O,1.700000X1.700000*%
%ADD15C,3.316000*%
%ADD16O,1.800000X3.600000*%
%ADD17C,2.700000*%
%ADD18C,0.001000*%
%ADD19C,2.000000*%
%ADD20O,1.800000X1.800000*%
%ADD21O,1.500000X1.500000*%
%ADD22FreePoly0,90.000000*%
%ADD23FreePoly1,90.000000*%
%ADD24FreePoly0,270.000000*%
%ADD25FreePoly1,270.000000*%
%ADD26C,1.000000*%
G04 APERTURE END LIST*
D10*
%TO.C,J14*%
X192139178Y-108650000D03*
X217139178Y-108650000D03*
D11*
X208954177Y-106599999D03*
D12*
X206664178Y-106600000D03*
X204374178Y-106600000D03*
X202084178Y-106600000D03*
X199794178Y-106600000D03*
X210099178Y-108580000D03*
X207809178Y-108580000D03*
X205519178Y-108580000D03*
X203229178Y-108580000D03*
X200939178Y-108580000D03*
X208954178Y-110560000D03*
X206664178Y-110560000D03*
X204374178Y-110560000D03*
X202084178Y-110560000D03*
X199794178Y-110560000D03*
%TD*%
D13*
%TO.C,J2*%
X159999999Y-112199999D03*
D14*
X159999999Y-109659999D03*
X159999999Y-107119999D03*
X159999999Y-104579999D03*
X159999999Y-102039999D03*
X159999999Y-99499999D03*
X159999999Y-96959999D03*
X159999999Y-94419999D03*
X159999999Y-91879999D03*
X159999999Y-89339999D03*
X159999999Y-86799999D03*
X159999999Y-84259999D03*
X159999999Y-81719999D03*
X159999999Y-79179999D03*
X159999999Y-76639999D03*
X159999999Y-74099999D03*
X159999999Y-71559999D03*
X159999999Y-69019999D03*
X159999999Y-66479999D03*
X159999999Y-63939999D03*
%TD*%
D15*
%TO.C,J7*%
X180215269Y-43050000D03*
D16*
X173815268Y-42349999D03*
X186615268Y-42349999D03*
%TD*%
D17*
%TO.C,H2*%
X43000000Y-110600000D03*
%TD*%
D18*
%TO.C,J1*%
X99300000Y-108720000D03*
X103300000Y-108720000D03*
D19*
X97725000Y-110850000D03*
X104875000Y-110850000D03*
X104875000Y-107400000D03*
X97725000Y-107400000D03*
%TD*%
D17*
%TO.C,H3*%
X115000000Y-65000000D03*
%TD*%
D10*
%TO.C,J8*%
X168384452Y-44950000D03*
X143384452Y-44950000D03*
D11*
X151569451Y-46999999D03*
D12*
X153859452Y-47000000D03*
X156149452Y-47000000D03*
X158439452Y-47000000D03*
X160729452Y-47000000D03*
X150424452Y-45020000D03*
X152714452Y-45020000D03*
X155004452Y-45020000D03*
X157294452Y-45020000D03*
X159584452Y-45020000D03*
X151569452Y-43040000D03*
X153859452Y-43040000D03*
X156149452Y-43040000D03*
X158439452Y-43040000D03*
X160729452Y-43040000D03*
%TD*%
D19*
%TO.C,SW3*%
X79783332Y-111850000D03*
X73283332Y-111850000D03*
X79783332Y-107350000D03*
X73283332Y-107350000D03*
%TD*%
D17*
%TO.C,H6*%
X165000000Y-110600000D03*
%TD*%
D19*
%TO.C,SW1*%
X54750000Y-111850000D03*
X48250000Y-111850000D03*
X54750000Y-107350000D03*
X48250000Y-107350000D03*
%TD*%
%TO.C,SW2*%
X67266666Y-111850000D03*
X60766666Y-111850000D03*
X67266666Y-107350000D03*
X60766666Y-107350000D03*
%TD*%
D17*
%TO.C,H4*%
X115000000Y-110600000D03*
%TD*%
D10*
%TO.C,J6*%
X217169178Y-44950000D03*
X192169178Y-44950000D03*
D11*
X200354177Y-46999999D03*
D12*
X202644178Y-47000000D03*
X204934178Y-47000000D03*
X207224178Y-47000000D03*
X209514178Y-47000000D03*
X199209178Y-45020000D03*
X201499178Y-45020000D03*
X203789178Y-45020000D03*
X206079178Y-45020000D03*
X208369178Y-45020000D03*
X200354178Y-43040000D03*
X202644178Y-43040000D03*
X204934178Y-43040000D03*
X207224178Y-43040000D03*
X209514178Y-43040000D03*
%TD*%
D10*
%TO.C,J12*%
X70815000Y-44950000D03*
X45815000Y-44950000D03*
D11*
X53999999Y-46999999D03*
D12*
X56290000Y-47000000D03*
X58580000Y-47000000D03*
X60870000Y-47000000D03*
X63160000Y-47000000D03*
X52855000Y-45020000D03*
X55145000Y-45020000D03*
X57435000Y-45020000D03*
X59725000Y-45020000D03*
X62015000Y-45020000D03*
X54000000Y-43040000D03*
X56290000Y-43040000D03*
X58580000Y-43040000D03*
X60870000Y-43040000D03*
X63160000Y-43040000D03*
%TD*%
D19*
%TO.C,SW4*%
X92300000Y-111850000D03*
X85800000Y-111850000D03*
X92300000Y-107350000D03*
X85800000Y-107350000D03*
%TD*%
D15*
%TO.C,J11*%
X82645817Y-43050000D03*
D16*
X76245816Y-42349999D03*
X89045816Y-42349999D03*
%TD*%
D17*
%TO.C,H5*%
X165000000Y-65000000D03*
%TD*%
%TO.C,H8*%
X237000000Y-110600000D03*
%TD*%
D13*
%TO.C,J4*%
X119999999Y-112199999D03*
D14*
X119999999Y-109659999D03*
X119999999Y-107119999D03*
X119999999Y-104579999D03*
X119999999Y-102039999D03*
X119999999Y-99499999D03*
X119999999Y-96959999D03*
X119999999Y-94419999D03*
X119999999Y-91879999D03*
X119999999Y-89339999D03*
X119999999Y-86799999D03*
X119999999Y-84259999D03*
X119999999Y-81719999D03*
X119999999Y-79179999D03*
X119999999Y-76639999D03*
X119999999Y-74099999D03*
X119999999Y-71559999D03*
X119999999Y-69019999D03*
X119999999Y-66479999D03*
X119999999Y-63939999D03*
%TD*%
D15*
%TO.C,J5*%
X228999995Y-43050000D03*
D16*
X222599994Y-42349999D03*
X235399994Y-42349999D03*
%TD*%
D17*
%TO.C,H7*%
X237000000Y-59000000D03*
%TD*%
%TO.C,H1*%
X43000000Y-59000000D03*
%TD*%
D10*
%TO.C,J10*%
X119599726Y-44950000D03*
X94599726Y-44950000D03*
D11*
X102784725Y-46999999D03*
D12*
X105074726Y-47000000D03*
X107364726Y-47000000D03*
X109654726Y-47000000D03*
X111944726Y-47000000D03*
X101639726Y-45020000D03*
X103929726Y-45020000D03*
X106219726Y-45020000D03*
X108509726Y-45020000D03*
X110799726Y-45020000D03*
X102784726Y-43040000D03*
X105074726Y-43040000D03*
X107364726Y-43040000D03*
X109654726Y-43040000D03*
X111944726Y-43040000D03*
%TD*%
D13*
%TO.C,J3*%
X237099999Y-92079999D03*
D14*
X234559999Y-92079999D03*
X237099999Y-89539999D03*
X234559999Y-89539999D03*
X237099999Y-86999999D03*
X234559999Y-86999999D03*
X237099999Y-84459999D03*
X234559999Y-84459999D03*
X237099999Y-81919999D03*
X234559999Y-81919999D03*
X237099999Y-79379999D03*
X234559999Y-79379999D03*
X237099999Y-76839999D03*
X234559999Y-76839999D03*
X237099999Y-74299999D03*
X234559999Y-74299999D03*
X237099999Y-71759999D03*
X234559999Y-71759999D03*
X237099999Y-69219999D03*
X234559999Y-69219999D03*
X237099999Y-66679999D03*
X234559999Y-66679999D03*
X237099999Y-64139999D03*
X234559999Y-64139999D03*
%TD*%
D20*
%TO.C,U1*%
X142724999Y-112069999D03*
D21*
X142424999Y-109039999D03*
X137574999Y-109039999D03*
D20*
X137274999Y-112069999D03*
D14*
X148889999Y-112199999D03*
X148889999Y-109659999D03*
D13*
X148889999Y-107119999D03*
D14*
X148889999Y-104579999D03*
X148889999Y-102039999D03*
X148889999Y-99499999D03*
X148889999Y-96959999D03*
D13*
X148889999Y-94419999D03*
D14*
X148889999Y-91879999D03*
X148889999Y-89339999D03*
X148889999Y-86799999D03*
X148889999Y-84259999D03*
D13*
X148889999Y-81719999D03*
D14*
X148889999Y-79179999D03*
X148889999Y-76639999D03*
X148889999Y-74099999D03*
X148889999Y-71559999D03*
D13*
X148889999Y-69019999D03*
D14*
X148889999Y-66479999D03*
X148889999Y-63939999D03*
X131109999Y-63939999D03*
X131109999Y-66479999D03*
D13*
X131109999Y-69019999D03*
D14*
X131109999Y-71559999D03*
X131109999Y-74099999D03*
X131109999Y-76639999D03*
X131109999Y-79179999D03*
D13*
X131109999Y-81719999D03*
D14*
X131109999Y-84259999D03*
X131109999Y-86799999D03*
X131109999Y-89339999D03*
X131109999Y-91879999D03*
D13*
X131109999Y-94419999D03*
D14*
X131109999Y-96959999D03*
X131109999Y-99499999D03*
X131109999Y-102039999D03*
X131109999Y-104579999D03*
D13*
X131109999Y-107119999D03*
D14*
X131109999Y-109659999D03*
X131109999Y-112199999D03*
X142539999Y-64169999D03*
D13*
X139999999Y-64169999D03*
D14*
X137459999Y-64169999D03*
%TD*%
D15*
%TO.C,J13*%
X179200000Y-110550000D03*
D16*
X185599999Y-111249999D03*
X172799999Y-111249999D03*
%TD*%
D15*
%TO.C,J9*%
X131430543Y-43050000D03*
D16*
X125030542Y-42349999D03*
X137830542Y-42349999D03*
%TD*%
D22*
%TO.C,JP40*%
X103528296Y-56034338D03*
D23*
X103528296Y-54734338D03*
%TD*%
D24*
%TO.C,JP68*%
X204639176Y-97565662D03*
D25*
X204639176Y-98865662D03*
%TD*%
D22*
%TO.C,JP1*%
X217169178Y-52034338D03*
D23*
X217169178Y-50734338D03*
%TD*%
D22*
%TO.C,JP57*%
X51593582Y-56034338D03*
D23*
X51593582Y-54734338D03*
%TD*%
D26*
%TO.C,TP11*%
X159455878Y-59234338D03*
%TD*%
D22*
%TO.C,JP43*%
X98171154Y-52034338D03*
D23*
X98171154Y-50734338D03*
%TD*%
D26*
%TO.C,TP15*%
X114242580Y-59234338D03*
%TD*%
D22*
%TO.C,JP8*%
X204537926Y-56034338D03*
D23*
X204537926Y-54734338D03*
%TD*%
D26*
%TO.C,TP10*%
X163027306Y-59234338D03*
%TD*%
D22*
%TO.C,JP23*%
X155884450Y-56034338D03*
D23*
X155884450Y-54734338D03*
%TD*%
D22*
%TO.C,JP12*%
X197482570Y-56034338D03*
D23*
X197482570Y-54734338D03*
%TD*%
D22*
%TO.C,JP45*%
X94599726Y-52034338D03*
D23*
X94599726Y-50734338D03*
%TD*%
D26*
%TO.C,TP18*%
X96385440Y-59234338D03*
%TD*%
D22*
%TO.C,JP58*%
X49807868Y-52034338D03*
D23*
X49807868Y-50734338D03*
%TD*%
D24*
%TO.C,JP74*%
X215353462Y-97565662D03*
D25*
X215353462Y-98865662D03*
%TD*%
D26*
%TO.C,TP24*%
X193924892Y-94215662D03*
%TD*%
D22*
%TO.C,JP53*%
X58736438Y-56034338D03*
D23*
X58736438Y-54734338D03*
%TD*%
D22*
%TO.C,JP17*%
X166598736Y-56034338D03*
D23*
X166598736Y-54734338D03*
%TD*%
D26*
%TO.C,TP9*%
X166598736Y-59234338D03*
%TD*%
%TO.C,TP5*%
X211593282Y-59234338D03*
%TD*%
D22*
%TO.C,JP15*%
X192169178Y-52034338D03*
D23*
X192169178Y-50734338D03*
%TD*%
D26*
%TO.C,TP23*%
X48022154Y-59234338D03*
%TD*%
D22*
%TO.C,JP49*%
X65879294Y-56034338D03*
D23*
X65879294Y-54734338D03*
%TD*%
D22*
%TO.C,JP25*%
X152313022Y-56034338D03*
D23*
X152313022Y-54734338D03*
%TD*%
D22*
%TO.C,JP18*%
X164813020Y-52034338D03*
D23*
X164813020Y-50734338D03*
%TD*%
D24*
%TO.C,JP66*%
X201067748Y-97565662D03*
D25*
X201067748Y-98865662D03*
%TD*%
D22*
%TO.C,JP16*%
X168384452Y-52034338D03*
D23*
X168384452Y-50734338D03*
%TD*%
D26*
%TO.C,TP4*%
X215120962Y-59234338D03*
%TD*%
D22*
%TO.C,JP60*%
X46236440Y-52034338D03*
D23*
X46236440Y-50734338D03*
%TD*%
D22*
%TO.C,JP32*%
X117814010Y-56034338D03*
D23*
X117814010Y-54734338D03*
%TD*%
D24*
%TO.C,JP71*%
X209996318Y-101565662D03*
D25*
X209996318Y-102865662D03*
%TD*%
D26*
%TO.C,TP22*%
X53379296Y-59234338D03*
%TD*%
D22*
%TO.C,JP26*%
X150527308Y-52034338D03*
D23*
X150527308Y-50734338D03*
%TD*%
D22*
%TO.C,JP6*%
X208065604Y-56034338D03*
D23*
X208065604Y-54734338D03*
%TD*%
D22*
%TO.C,JP55*%
X55165010Y-56034338D03*
D23*
X55165010Y-54734338D03*
%TD*%
D24*
%TO.C,JP67*%
X202853462Y-101565662D03*
D25*
X202853462Y-102865662D03*
%TD*%
D22*
%TO.C,JP9*%
X202883462Y-52034338D03*
D23*
X202883462Y-50734338D03*
%TD*%
D26*
%TO.C,TP6*%
X208065604Y-59234338D03*
%TD*%
%TO.C,TP26*%
X201067748Y-94215662D03*
%TD*%
D24*
%TO.C,JP69*%
X206424890Y-101565662D03*
D25*
X206424890Y-102865662D03*
%TD*%
D22*
%TO.C,JP48*%
X67665008Y-52034338D03*
D23*
X67665008Y-50734338D03*
%TD*%
D24*
%TO.C,JP73*%
X213567746Y-101565662D03*
D25*
X213567746Y-102865662D03*
%TD*%
D22*
%TO.C,JP4*%
X211593282Y-56034338D03*
D23*
X211593282Y-54734338D03*
%TD*%
D22*
%TO.C,JP50*%
X64093580Y-52034338D03*
D23*
X64093580Y-50734338D03*
%TD*%
D22*
%TO.C,JP59*%
X48022154Y-56034338D03*
D23*
X48022154Y-54734338D03*
%TD*%
D26*
%TO.C,TP20*%
X65879294Y-59234338D03*
%TD*%
D22*
%TO.C,JP39*%
X105314010Y-52034338D03*
D23*
X105314010Y-50734338D03*
%TD*%
D22*
%TO.C,JP3*%
X213597746Y-52034338D03*
D23*
X213597746Y-50734338D03*
%TD*%
D22*
%TO.C,JP42*%
X99956868Y-56034338D03*
D23*
X99956868Y-54734338D03*
%TD*%
D22*
%TO.C,JP27*%
X148741594Y-56034338D03*
D23*
X148741594Y-54734338D03*
%TD*%
D26*
%TO.C,TP17*%
X101742582Y-59234338D03*
%TD*%
D22*
%TO.C,JP47*%
X69450724Y-56034338D03*
D23*
X69450724Y-54734338D03*
%TD*%
D26*
%TO.C,TP27*%
X209996318Y-94215662D03*
%TD*%
D22*
%TO.C,JP56*%
X53379296Y-52034338D03*
D23*
X53379296Y-50734338D03*
%TD*%
D26*
%TO.C,TP28*%
X215353462Y-94215662D03*
%TD*%
D22*
%TO.C,JP2*%
X215120962Y-56034338D03*
D23*
X215120962Y-54734338D03*
%TD*%
D22*
%TO.C,JP33*%
X116028294Y-52034338D03*
D23*
X116028294Y-50734338D03*
%TD*%
D24*
%TO.C,JP70*%
X208210604Y-97565662D03*
D25*
X208210604Y-98865662D03*
%TD*%
D22*
%TO.C,JP21*%
X159455878Y-56034338D03*
D23*
X159455878Y-54734338D03*
%TD*%
D22*
%TO.C,JP24*%
X154098736Y-52034338D03*
D23*
X154098736Y-50734338D03*
%TD*%
D22*
%TO.C,JP7*%
X206454890Y-52034338D03*
D23*
X206454890Y-50734338D03*
%TD*%
D22*
%TO.C,JP36*%
X110671152Y-56034338D03*
D23*
X110671152Y-54734338D03*
%TD*%
D26*
%TO.C,TP8*%
X193954892Y-59234338D03*
%TD*%
D22*
%TO.C,JP19*%
X163027306Y-56034338D03*
D23*
X163027306Y-54734338D03*
%TD*%
D26*
%TO.C,TP7*%
X199312034Y-59234338D03*
%TD*%
D22*
%TO.C,JP28*%
X146955880Y-52034338D03*
D23*
X146955880Y-50734338D03*
%TD*%
D22*
%TO.C,JP20*%
X161241592Y-52034338D03*
D23*
X161241592Y-50734338D03*
%TD*%
D22*
%TO.C,JP35*%
X112456866Y-52034338D03*
D23*
X112456866Y-50734338D03*
%TD*%
D22*
%TO.C,JP38*%
X107099724Y-56034338D03*
D23*
X107099724Y-54734338D03*
%TD*%
D26*
%TO.C,TP1*%
X98725000Y-104300000D03*
%TD*%
D24*
%TO.C,JP61*%
X192139178Y-101565662D03*
D25*
X192139178Y-102865662D03*
%TD*%
D24*
%TO.C,JP72*%
X211782032Y-97565662D03*
D25*
X211782032Y-98865662D03*
%TD*%
D22*
%TO.C,JP44*%
X96385440Y-56034338D03*
D23*
X96385440Y-54734338D03*
%TD*%
D22*
%TO.C,JP54*%
X56950724Y-52034338D03*
D23*
X56950724Y-50734338D03*
%TD*%
D26*
%TO.C,TP16*%
X110671152Y-59234338D03*
%TD*%
D22*
%TO.C,JP5*%
X210026318Y-52034338D03*
D23*
X210026318Y-50734338D03*
%TD*%
D26*
%TO.C,TP19*%
X69450724Y-59234338D03*
%TD*%
D22*
%TO.C,JP41*%
X101742582Y-52034338D03*
D23*
X101742582Y-50734338D03*
%TD*%
D26*
%TO.C,TP14*%
X117814010Y-59234338D03*
%TD*%
D24*
%TO.C,JP62*%
X193924892Y-97565662D03*
D25*
X193924892Y-98865662D03*
%TD*%
D22*
%TO.C,JP52*%
X60522152Y-52034338D03*
D23*
X60522152Y-50734338D03*
%TD*%
D26*
%TO.C,TP13*%
X145170166Y-59234338D03*
%TD*%
D24*
%TO.C,JP65*%
X199282034Y-101565662D03*
D25*
X199282034Y-102865662D03*
%TD*%
D22*
%TO.C,JP30*%
X143384452Y-52034338D03*
D23*
X143384452Y-50734338D03*
%TD*%
D22*
%TO.C,JP29*%
X145170166Y-56034338D03*
D23*
X145170166Y-54734338D03*
%TD*%
D22*
%TO.C,JP37*%
X108885438Y-52034338D03*
D23*
X108885438Y-50734338D03*
%TD*%
D24*
%TO.C,JP63*%
X195710606Y-101565662D03*
D25*
X195710606Y-102865662D03*
%TD*%
D22*
%TO.C,JP22*%
X157670164Y-52034338D03*
D23*
X157670164Y-50734338D03*
%TD*%
D26*
%TO.C,TP12*%
X150527308Y-59234338D03*
%TD*%
D24*
%TO.C,JP75*%
X217139178Y-101565662D03*
D25*
X217139178Y-102865662D03*
%TD*%
D22*
%TO.C,JP11*%
X199312034Y-52034338D03*
D23*
X199312034Y-50734338D03*
%TD*%
D22*
%TO.C,JP46*%
X71236440Y-52034338D03*
D23*
X71236440Y-50734338D03*
%TD*%
D22*
%TO.C,JP14*%
X193954892Y-56034338D03*
D23*
X193954892Y-54734338D03*
%TD*%
D26*
%TO.C,TP21*%
X62307866Y-59234338D03*
%TD*%
%TO.C,TP25*%
X197496320Y-94215662D03*
%TD*%
D22*
%TO.C,JP10*%
X201010248Y-56034338D03*
D23*
X201010248Y-54734338D03*
%TD*%
D22*
%TO.C,JP34*%
X114242580Y-56034338D03*
D23*
X114242580Y-54734338D03*
%TD*%
D22*
%TO.C,JP13*%
X195740606Y-52034338D03*
D23*
X195740606Y-50734338D03*
%TD*%
D22*
%TO.C,JP31*%
X119599726Y-52034338D03*
D23*
X119599726Y-50734338D03*
%TD*%
D26*
%TO.C,TP2*%
X101775000Y-104300000D03*
%TD*%
%TO.C,TP3*%
X104825000Y-104300000D03*
%TD*%
D22*
%TO.C,JP51*%
X62307866Y-56034338D03*
D23*
X62307866Y-54734338D03*
%TD*%
D24*
%TO.C,JP64*%
X197496320Y-97565662D03*
D25*
X197496320Y-98865662D03*
%TD*%
M02*
